# xmcd
#
# Track frame offsets:
#	182
#	36185
#	54775
#	83577
#	111335
#	129100
#
# Disc length: 2053 seconds
#
# Revision: 5
# Processed by: cddbd v1.5.2PL0 Copyright (c) Steve Scherf et al.
# Submitted via: EZCDAudioConverter 1.3.4.1
#
DISCID=3d080306
DTITLE=The B-52's - Love Shack
DYEAR=1989
DGENRE=
TTITLE0=Love Shack [12'' Remix]
TTITLE1=Love Shack [Remix Edit]
TTITLE2=Channel Z [12'' Rock Mix]
TTITLE3=Love Shack [12'' Mix]
TTITLE4=Love Shack [A Cappella]
TTITLE5=Love Shack [Big Radio Mix]
EXTD=
EXTT0=
EXTT1=
EXTT2=
EXTT3=
EXTT4=
EXTT5=
PLAYORDER=
